HIERARCHY
ROOT Hips
{
  OFFSET 0 0 0
  CHANNELS 6 Xposition Yposition Zposition Zrotation Xrotation Yrotation
  JOINT Spine
  {
    OFFSET 0.00000000 0.00000000 0.00000000
    CHANNELS 3 Zrotation Xrotation Yrotation
    JOINT Spine1
    {
      OFFSET 0.19000000 0.00000000 0.00000000
      CHANNELS 3 Zrotation Xrotation Yrotation
      JOINT Neck
      {
        OFFSET 0.22500000 0.00600000 0.00000000
        CHANNELS 3 Zrotation Xrotation Yrotation
        JOINT Head
        {
          OFFSET 0.14000000 0.00030878 0.00000000
          CHANNELS 3 Zrotation Xrotation Yrotation
          End Site
          {
            OFFSET 0.17000000 0.00000000 0.00000000
          }
        }
      }
      JOINT LeftShoulder
      {
        OFFSET 0.19800000 0.03700000 0.04300000
        CHANNELS 3 Zrotation Xrotation Yrotation
        JOINT LeftArm
        {
          OFFSET 0.08000000 0.00000000 0.00000000
          CHANNELS 3 Zrotation Xrotation Yrotation
          JOINT LeftForeArm
          {
            OFFSET 0.15200000 0.00000000 0.00000000
            CHANNELS 3 Zrotation Xrotation Yrotation
            JOINT LeftHand
            {
              OFFSET 0.17800000 0.00000000 0.00000000
              CHANNELS 3 Zrotation Xrotation Yrotation
              End Site
              {
                OFFSET 0.07200000 0.00000000 0.00000000
              }
            }
          }
        }
      }
      JOINT RightShoulder
      {
        OFFSET 0.19800000 0.03700000 -0.04300000
        CHANNELS 3 Zrotation Xrotation Yrotation
        JOINT RightArm
        {
          OFFSET 0.08000000 0.00000000 0.00151654
          CHANNELS 3 Zrotation Xrotation Yrotation
          JOINT RightForeArm
          {
            OFFSET 0.15200000 0.00000000 0.00000000
            CHANNELS 3 Zrotation Xrotation Yrotation
            JOINT RightHand
            {
              OFFSET 0.17800000 0.00000000 0.00000000
              CHANNELS 3 Zrotation Xrotation Yrotation
              End Site
              {
                OFFSET 0.07200000 0.00000000 0.00000000
              }
            }
          }
        }
      }
    }
  }
  JOINT LeftUpLeg
  {
    OFFSET 0.05984250 -0.07666000 0.04788790
    CHANNELS 3 Zrotation Xrotation Yrotation
    JOINT LeftLeg
    {
      OFFSET 0.16000000 0.00000000 0.00000000
      CHANNELS 3 Zrotation Xrotation Yrotation
      JOINT LeftFoot
      {
        OFFSET 0.18000000 0.00000000 0.00000000
        CHANNELS 3 Zrotation Xrotation Yrotation
        End Site
        {
          OFFSET 0.00000000 -0.10800000 0.00000000
        }
      }
    }
  }
  JOINT RightUpLeg
  {
    OFFSET 0.05984250 -0.07665980 -0.04788790
    CHANNELS 3 Zrotation Xrotation Yrotation
    JOINT RightLeg
    {
      OFFSET 0.16000000 0.00000000 0.00000000
      CHANNELS 3 Zrotation Xrotation Yrotation
      JOINT RightFoot
      {
        OFFSET 0.18000000 0.00000000 0.00000000
        CHANNELS 3 Zrotation Xrotation Yrotation
        End Site
        {
          OFFSET 0.00000000 -0.10800000 0.00000000
        }
      }
    }
  }
  JOINT Tail
  {
    OFFSET 0.06836960 -0.00722574 0.00000000
    CHANNELS 3 Zrotation Xrotation Yrotation
    JOINT Tail1
    {
      OFFSET 0.12000000 0.00000000 0.00000000
      CHANNELS 3 Zrotation Xrotation Yrotation
      End Site
      {
        OFFSET 0.12000000 0.00000000 0.00000000
      }
    }
  }
}
MOTION
Frames:	21
Frame Time:	0.0166667
0.0000000 0.1091900 0.0000000 -91.6812 0.11679 -3.97268 -127.522 -6.90029 -18.2928 -5.23369 0.107881 14.2348 12.5208 -24.3457 23.2013 -79.9019 50.0559 109.439 -110.624 -36.8842 -138.162 63.8836 -59.8208 -169.089 -82.6359 -3.79318 7.8336 9.22126 -0.74807 -10.8769 76.227 -31.2447 50.6848 104.744 -71.3914 10.2916 -79.595 -11.6513 -5.5319 2.00352 0.333982 -5.93817 -126.382 40.2515 -15.1568 155.451 52.4653 -1.79301 -25.2513 -1.81248 7.97557 -120.858 -48.8075 7.64989 154.236 -45.6783 -7.26292 -39.4317 -2.36971 -21.7789 66.9586 25.1361 -5.69379 16.8812 -17.1979 3.83474 
-0.0012445 0.1088920 0.0016278 -91.4335 0.40673 -3.93501 -127.898 -6.77956 -18.3676 -4.94148 0.2478 14.2163 13.069 -24.8199 23.8621 -80.1307 49.9375 108.633 -110.611 -36.8811 -138.133 64.2688 -60.8948 -168.741 -82.6438 -4.34851 7.55741 9.27045 -0.519565 -13.7564 76.2984 -31.2776 51.0069 105.34 -70.8859 10.1725 -80.0151 -11.7799 -5.46656 2.17652 0.354774 -6.43455 -125.949 40.0544 -15.3506 155.821 52.6982 -1.80659 -26.8398 -1.98614 8.06748 -121.057 -46.6906 7.77434 154.57 -42.0727 -6.7159 -40.1033 -2.39471 -20.6994 66.4337 24.9243 -4.83921 16.8158 -17.3608 3.75581 
-0.0024748 0.1087250 0.0032294 -91.2970 0.75123 -3.79926 -127.997 -6.75171 -18.3274 -4.93989 0.269029 14.0765 13.4025 -24.8799 23.9182 -80.2867 49.2263 109.145 -110.585 -36.9155 -137.998 62.9733 -61.0009 -169.755 -82.9736 -3.98882 7.47788 9.2715 -0.521729 -13.7156 76.2408 -31.3159 50.8847 106.155 -71.1603 11.2458 -80.2679 -11.3757 -5.67228 2.45034 0.31262 -6.04978 -124.796 40.7464 -15.6243 156.036 54.2472 -1.8132 -28.6167 -2.15714 8.35781 -121.437 -49.7612 7.22351 154.255 -45.6912 -7.34694 -39.95 -2.30448 -21.8605 66.0306 24.5895 -3.97017 16.7677 -17.5233 3.69631 
-0.0041732 0.1083640 0.0047720 -91.0146 1.09794 -3.67628 -128.373 -6.6775 -18.2902 -4.79592 0.317295 13.8933 13.6557 -24.6137 24.2612 -80.6094 49.5516 109.006 -110.553 -36.9549 -137.842 61.695 -61.2319 -170.615 -83.2353 -2.69715 7.04751 8.98259 -0.550988 -12.8972 76.3423 -31.208 51.0143 106.526 -71.2928 11.7354 -80.4747 -10.9735 -5.9136 2.68112 0.300203 -5.9271 -123.89 41.3452 -16.0287 156.4 55.489 -1.85214 -30.2521 -2.32072 8.657 -122.808 -52.3498 6.26147 154.344 -46.7058 -7.6139 -39.6571 -2.31301 -22.9645 65.5246 24.2217 -3.10173 16.7478 -17.6647 3.70094 
-0.0055591 0.1084240 0.0064112 -90.7181 1.52263 -3.54021 -128.789 -6.57187 -18.3514 -4.57836 0.431788 13.8139 14.333 -24.833 25.159 -80.9632 49.6521 108.254 -110.58 -37.0369 -137.755 61.2616 -61.6684 -171.39 -83.2004 -2.52064 7.09749 8.90749 -0.53102 -12.9949 76.3706 -31.1727 51.0395 106.516 -71.297 11.605 -80.5389 -11.1299 -5.90472 2.72071 0.333596 -6.18642 -123.011 41.4943 -16.5981 156.749 56.2049 -1.88778 -31.6579 -2.4796 8.86825 -123.187 -51.7605 6.0906 154.413 -45.8764 -7.48479 -39.834 -2.32505 -22.5878 64.8222 23.9295 -2.16136 16.7506 -17.9014 3.68629 
-0.0070015 0.1085420 0.0081963 -90.4185 2.04841 -3.38756 -129.418 -6.39703 -18.4375 -4.04791 0.636486 13.6913 14.5597 -24.7778 25.8193 -81.4681 50.0433 107.735 -110.605 -37.1127 -137.676 60.6263 -61.4537 -171.943 -83.3668 -2.384 7.2318 8.97168 -0.567627 -12.5587 76.3745 -31.127 50.9559 106.281 -70.963 10.9271 -80.6849 -11.4221 -5.76623 2.76169 0.361151 -6.51704 -121.558 41.7164 -17.6275 156.904 57.5336 -1.93303 -33.7103 -2.70813 8.75593 -123.542 -52.3399 5.59262 154.122 -47.4461 -7.7764 -40.0215 -2.25248 -22.7246 64.1973 23.498 -1.17357 16.6948 -18.0787 3.68971 
-0.0082634 0.1084480 0.0102519 -90.1989 2.55482 -3.24911 -129.824 -6.28724 -18.5433 -3.78661 0.759113 13.7205 14.9893 -24.894 26.5096 -82.44 50.0843 107.207 -110.486 -37.1067 -137.378 59.7157 -61.306 -172.234 -83.6542 -1.89981 6.93524 9.22433 -0.616674 -11.8853 76.3333 -31.1394 50.836 106.473 -71.0013 11.3955 -80.913 -11.2937 -5.9684 2.86759 0.370891 -6.51445 -120.452 42.4332 -18.2471 157.191 59.5063 -1.99242 -35.213 -2.87869 9.08974 -123.305 -53.7703 5.30819 153.807 -49.0037 -8.13853 -40.3545 -2.13829 -22.9458 63.6992 23.0611 -0.222765 16.659 -18.2381 3.73642 
-0.0097442 0.1081830 0.0120898 -89.9463 3.09551 -3.08941 -130.2 -6.11984 -18.5583 -3.6919 0.91564 13.5891 15.2892 -25.0629 27.1385 -83.1626 50.3605 106.455 -110.409 -37.0481 -137.287 59.1248 -61.3679 -172.923 -83.7146 -1.98908 6.9257 9.43621 -0.613637 -11.7996 76.3532 -31.1068 50.8372 106.906 -71.3236 12.1086 -81.01 -11.1931 -6.07556 3.05173 0.365939 -6.40965 -119.07 43.0155 -18.9153 157.413 61.0203 -2.03291 -37.1388 -3.10117 9.1988 -124.277 -55.5834 4.41706 153.472 -50.7301 -8.58845 -40.2284 -2.10072 -23.6617 63.1385 22.6285 0.665843 16.662 -18.4017 3.78719 
-0.0107881 0.1076470 0.0135710 -89.8529 3.62189 -2.96129 -130.392 -5.97679 -18.5593 -3.62866 1.07685 13.4159 15.5428 -25.3202 27.7046 -83.6449 50.2599 106.033 -110.416 -37.0438 -137.313 58.7323 -61.5899 -173.772 -83.7265 -2.2098 7.0882 9.51988 -0.583686 -12.0314 76.4061 -31.0429 50.8886 107.099 -71.3154 12.1316 -81.231 -11.2022 -6.10772 3.30127 0.376434 -6.58204 -118.063 42.9785 -19.37 157.702 61.3768 -2.07356 -38.6635 -3.2987 9.35692 -124.344 -56.1041 4.1848 153.446 -50.543 -8.64481 -40.8592 -2.00517 -23.6037 62.8547 22.1537 1.54525 16.5792 -18.5134 3.87865 
-0.0118567 0.1074330 0.0151603 -89.8012 4.18532 -2.84282 -130.66 -5.8379 -18.5359 -3.38821 1.24854 13.1357 15.863 -25.5485 28.3525 -84.2383 50.1737 105.623 -110.393 -37.069 -137.205 57.3977 -61.3827 -174.947 -84.1789 -1.52109 6.92906 9.79096 -0.696572 -10.5979 76.4476 -30.9584 50.8554 106.956 -71.4774 11.9277 -81.2846 -11.2394 -6.02857 3.49023 0.367874 -6.62303 -116.572 42.9176 -20.3496 157.966 62.3726 -2.15717 -40.2076 -3.48027 9.30273 -125.103 -56.2113 3.45989 153.472 -50.5551 -8.66817 -40.5882 -2.06148 -23.6178 62.6227 21.6796 2.3979 16.5519 -18.6071 4.01413 
-0.0129851 0.1069940 0.0167160 -89.7236 4.68288 -2.71712 -130.875 -5.6923 -18.5034 -3.30549 1.39369 12.9515 16.0049 -25.9458 28.9053 -84.4204 50.2773 104.909 -110.409 -37.1275 -137.137 56.9999 -61.5667 -175.437 -84.0154 -1.31464 6.85717 9.65982 -0.640367 -10.8864 76.453 -30.9509 50.8586 107.237 -71.6427 12.2573 -81.3517 -11.1302 -6.14691 3.6024 0.38035 -6.55534 -115.136 42.7384 -21.189 158.141 63.299 -2.2301 -42.0557 -3.68336 9.03514 -126.308 -57.1383 2.3329 153.351 -51.7107 -8.94902 -40.1527 -2.09895 -24.1193 62.4254 21.227 3.10361 16.5044 -18.6601 4.08991 
-0.0138329 0.1058300 0.0179496 -90.0371 5.13466 -2.67101 -130.642 -5.62569 -18.5896 -3.46877 1.54879 12.8897 16.0849 -26.5384 29.134 -84.3804 49.8219 104.572 -110.333 -37.0239 -137.133 56.382 -62.1129 -175.877 -84.1959 -1.05154 6.42625 9.94152 -0.577805 -11.5883 76.5362 -30.881 51.0062 108.246 -71.6033 13.2215 -81.6805 -10.9848 -6.27851 3.87353 0.388403 -6.59355 -113.813 42.8647 -21.5948 158.559 63.9027 -2.2881 -43.3677 -3.85385 9.17654 -127.911 -59.1318 0.602761 153.113 -53.6449 -9.47042 -39.4726 -2.15763 -25.1018 62.8904 20.713 3.82993 16.2386 -18.5475 4.02998 
-0.0151179 0.1053920 0.0194967 -89.8700 5.61447 -2.63643 -131.134 -5.56832 -18.799 -3.13142 1.64571 12.995 15.9495 -26.8601 29.363 -84.0153 50.0639 104.002 -110.287 -37.0321 -136.997 55.2466 -61.6288 -176.76 -84.5007 -0.0342487 6.4995 9.69256 -0.736696 -9.33602 76.559 -30.8504 51.022 107.605 -71.648 12.4583 -81.603 -10.9447 -6.23287 4.11251 0.373349 -6.81249 -112.469 43.6777 -22.3442 158.825 66.22 -2.39258 -44.6537 -3.9765 9.12165 -129.499 -60.2791 -0.876715 152.85 -54.9849 -9.8618 -39.153 -2.17029 -25.713 62.704 20.2958 4.49627 16.1188 -18.5155 4.00188 
-0.0158375 0.1050630 0.0206243 -89.8590 5.99960 -2.51271 -131.281 -5.49742 -18.8986 -2.99592 1.74755 13.0547 15.5278 -27.0928 29.3393 -83.8685 50.0889 103.856 -110.429 -37.1498 -137.147 55.4628 -62.2505 -176.715 -84.2468 -0.178663 6.33874 9.47596 -0.563358 -11.3173 76.5493 -30.8815 51.0543 107.819 -71.5923 12.4063 -81.7556 -10.7449 -6.198 4.76921 0.387195 -7.44031 -111.947 44.3587 -22.2773 159.232 66.9909 -2.40326 -45.2876 -4.10375 9.65823 -129.586 -59.7831 -1.02094 153.003 -54.3742 -9.70872 -39.2643 -2.1789 -25.4447 62.6765 19.9126 4.9501 15.965 -18.4921 3.9105 
-0.0163270 0.1044610 0.0215578 -89.9194 6.25614 -2.35356 -131.142 -5.47839 -18.9894 -3.26498 1.76973 13.2653 15.2531 -27.2863 29.1785 -83.793 49.8822 103.938 -110.388 -37.0646 -137.201 54.532 -62.0636 -177.664 -84.5346 -0.454547 6.51647 9.733 -0.59463 -11.2291 76.6554 -30.7909 51.2417 108.325 -71.3492 12.5932 -81.988 -10.7761 -6.27189 4.84479 0.415005 -7.74818 -111.23 45.0787 -22.4752 159.377 68.3805 -2.42677 -46.0893 -4.21745 9.84057 -128.964 -60.1831 -0.778768 152.938 -54.3409 -9.7668 -39.9911 -2.0433 -25.3259 62.8931 19.5003 5.20714 15.8046 -18.3856 3.8593 
-0.0169481 0.1040840 0.0222931 -89.9156 6.40102 -2.22872 -131.101 -5.59016 -19.1539 -3.45379 1.65171 13.6201 15.174 -27.5873 29.4705 -82.8951 50.2624 103.211 -110.371 -37.0428 -137.197 53.6531 -61.3787 -178.621 -84.6735 -0.0991526 6.9848 9.36553 -0.688184 -10.0582 76.6916 -30.7675 51.3221 108.031 -71.6222 12.4928 -81.9872 -11.0015 -6.44481 4.07789 0.455762 -7.33989 -110.219 45.4122 -23.0945 159.423 69.9532 -2.54015 -46.9815 -4.28208 9.57755 -129.813 -61.5523 -1.57139 152.663 -55.4304 -10.1336 -39.8087 -2.03405 -25.9427 62.9236 19.2544 5.38765 15.7479 -18.3608 3.80186 
-0.0173377 0.1041690 0.0229235 -89.7742 6.44596 -2.16730 -131.168 -5.77879 -19.383 -3.56255 1.43525 14.159 14.9366 -27.6742 29.4523 -82.9722 50.5536 102.893 -110.23 -36.9526 -136.999 52.4684 -61.1774 -178.941 -85.1109 0.467626 6.52578 9.72833 -0.724276 -9.85498 76.6455 -30.7376 51.0909 107.933 -71.9095 12.8474 -81.9822 -10.7215 -6.52202 4.17379 0.417464 -7.14507 -110.284 45.3954 -22.8101 159.521 69.872 -2.5252 -47.3821 -4.35515 9.72677 -129.733 -60.9666 -1.1976 153.1 -53.7674 -9.68401 -39.5031 -2.15003 -25.6397 62.7562 19.1387 5.52228 15.7597 -18.3912 3.80168 
-0.0176555 0.1043560 0.0234279 -89.6264 6.49263 -2.11739 -131.246 -5.8531 -19.6013 -3.63291 1.34648 14.6422 14.3831 -27.6629 28.9946 -83.2746 50.2854 103.416 -110.214 -36.9446 -136.972 52.2129 -61.699 -179.539 -85.0985 -0.158146 6.67074 9.98911 -0.677507 -10.9361 76.6443 -30.7836 51.1857 107.728 -71.8557 12.3609 -82.0179 -11.0207 -6.39638 4.07149 0.459879 -7.62286 -110.332 45.3221 -22.9634 159.65 70.1159 -2.55619 -47.5227 -4.3782 9.74787 -128.929 -59.0628 -0.232323 153.653 -51.3584 -9.03237 -39.6337 -2.21414 -24.7444 62.5444 19.0609 5.64388 15.7743 -18.4394 3.78784 
-0.0178031 0.1042440 0.0233317 -89.6723 6.46850 -2.00511 -131.141 -5.92011 -19.5244 -3.7825 1.23556 14.6436 14.2354 -27.8314 29.2663 -82.5991 50.4854 103.039 -110.321 -37.0213 -137.108 51.7341 -61.9596 179.149 -85.1353 -0.558631 7.00631 10.0111 -0.633366 -11.8295 76.759 -30.6198 51.2476 107.619 -71.4201 11.1917 -82.0935 -11.6656 -6.03397 3.95606 0.531477 -8.21773 -110.231 46.1051 -22.7913 159.755 70.7309 -2.56244 -47.5379 -4.42707 10.1845 -128.855 -61.5548 -0.717785 152.402 -55.9783 -10.3095 -40.0627 -1.98197 -25.5779 62.6626 18.9281 5.62479 15.6477 -18.4092 3.67048 
-0.0178346 0.1041300 0.0234538 -89.7277 6.46790 -1.91529 -131.138 -6.04747 -19.6568 -3.76888 1.08505 15.0424 13.9028 -27.7077 29.0079 -82.7455 50.7387 103.048 -110.225 -37.0126 -136.87 51.4115 -62.354 178.873 -85.1629 -0.985401 6.63268 10.8668 -0.600265 -12.9159 76.6534 -30.6564 50.9433 107.306 -71.7101 11.4657 -82.1333 -11.439 -6.20369 4.06454 0.522458 -8.11507 -110.049 45.9439 -22.9276 159.709 70.9325 -2.60415 -47.7571 -4.43176 10.0028 -129.106 -62.2141 -0.935473 152.293 -56.4024 -10.4683 -39.9551 -1.98519 -25.8538 62.7337 18.8213 5.6817 15.5882 -18.4242 3.65342 
-0.0179123 0.1043260 0.0236802 -89.5925 6.46789 -1.89889 -131.218 -6.18828 -19.8435 -3.80737 0.919729 15.486 13.7798 -27.6037 29.086 -82.6777 51.3501 102.58 -110.156 -36.9699 -136.771 51.3458 -62.5286 179.048 -85.1759 -0.531674 6.34898 10.9638 -0.611292 -12.7941 76.6109 -30.6418 50.7574 107.157 -72.3336 12.679 -82.1586 -10.8969 -6.64306 3.9067 0.508981 -7.65575 -110.255 45.7312 -22.9714 159.723 70.9638 -2.65202 -47.6942 -4.41278 9.91498 -128.991 -61.3366 -0.483694 152.863 -54.331 -9.86713 -39.8275 -2.07739 -25.5073 62.4813 18.8508 5.72644 15.6505 -18.5071 3.68079 
